<?xml version="1.0" encoding="UTF-8"?>
<svg id="_图层_2" data-name="图层 2" xmlns="http://www.w3.org/2000/svg" viewBox="0 0 144.94 93.7">
  <defs>
    <style>
      .cls-1 {
        fill: #3e3a39;
        stroke-width: 0px;
      }
    </style>
  </defs>
  <g id="_图层_1-2" data-name="图层 1">
    <g>
      <g>
        <path class="cls-1" d="M36.4,93.55s-.02.04-.05.04h-2.08s-.06-.01-.06-.04v-.19s.02-.03.05-.03l.79-.15v-5.52l-.79-.14s-.05-.01-.05-.04v-.19s.02-.03.06-.03h2.08s.05.01.05.03v.19s-.01.04-.04.04l-.8.15v2.43h4.1v-2.44l-.79-.14s-.05-.01-.05-.04v-.19s.02-.03.06-.03h2.07s.06.01.06.03v.19s-.02.04-.05.04l-.79.15v5.51l.79.15s.05.01.05.03v.19s-.02.04-.06.04h-2.07s-.06-.01-.06-.04v-.19s.02-.03.05-.03l.79-.15v-2.72h-4.1v2.72l.8.15s.04.01.04.03v.19Z"/>
        <path class="cls-1" d="M45.59,93.55s-.02.04-.06.04h-2.08s-.05-.01-.05-.04v-.19s.01-.03.04-.03l.8-.15v-2.45l-2.03-3.05-.82-.16s-.05-.01-.05-.04v-.19s.02-.03.06-.03h2.21s.05.01.05.03v.19s-.01.04-.04.04l-.85.15,1.8,2.76c.3-.46.59-.92.88-1.38.29-.46.59-.92.88-1.38-.1-.02-.21-.05-.32-.08-.11-.03-.22-.05-.32-.07-.03,0-.05-.01-.05-.04v-.19s.02-.03.06-.03h1.74s.05.01.05.03v.19s-.01.04-.04.04l-.67.16-2.04,3.1v2.4l.79.15s.05.01.05.03v.19Z"/>
        <path class="cls-1" d="M54.05,90.41c0,1.98-1.23,3.03-3.67,3.17,0,0-.01,0-.01,0,0,0,0,0-.01,0h-2.33s-.06-.01-.06-.04v-.19s.02-.03.05-.03l.79-.15v-5.52l-.79-.14s-.05-.01-.05-.04v-.19s.02-.03.06-.03h2.38c2.34.05,3.55,1.1,3.65,3.16ZM51.89,87.86c-.17-.06-.38-.12-.65-.16-.26-.04-.59-.07-.97-.09h-.97v5.62h.92c.7-.05,1.23-.15,1.61-.28.37-.13.67-.3.9-.5.24-.2.44-.48.58-.82.14-.34.21-.75.21-1.21s-.07-.88-.21-1.22c-.14-.34-.33-.62-.57-.82-.26-.23-.55-.4-.85-.51Z"/>
        <path class="cls-1" d="M57.14,93.55s-.02.04-.06.04h-2.16s-.06-.01-.06-.04v-.19s.02-.03.05-.03l.78-.15v-5.52l-.78-.14s-.05-.01-.05-.04v-.19s.02-.03.06-.03h3.08c1.38.03,2.08.56,2.11,1.59,0,.46-.18.86-.55,1.19-.27.27-.64.43-1.09.49l1.51,2.65,1,.16s.05.01.05.03v.19s-.02.04-.06.04h-1.31s-.04,0-.05-.02l-1.67-3.01h-1.73v2.62l.89.15s.05.01.05.03v.19ZM56.2,87.61v2.62h1.75c.53-.01.93-.14,1.22-.39.28-.25.42-.6.42-1.06,0-.37-.13-.65-.38-.86-.25-.21-.67-.31-1.24-.31h-1.77Z"/>
        <path class="cls-1" d="M61.07,90.4c0-.47.07-.9.22-1.3s.35-.75.61-1.04c.26-.29.58-.52.94-.68.37-.16.77-.24,1.2-.24s.83.08,1.19.24c.37.16.68.39.94.68.26.29.47.64.62,1.04.15.4.23.83.23,1.3s-.07.91-.22,1.31-.35.75-.61,1.05c-.26.3-.58.53-.94.69-.37.16-.77.25-1.21.25s-.83-.08-1.19-.24c-.36-.16-.68-.39-.94-.68-.26-.29-.47-.64-.62-1.04-.15-.41-.23-.85-.23-1.33ZM61.57,90.4c0,.4.06.78.17,1.13.12.35.28.66.5.93.21.27.47.48.78.63.3.15.65.23,1.03.23s.73-.08,1.03-.23c.3-.15.56-.36.77-.63.21-.27.38-.58.49-.93.12-.35.17-.73.17-1.13s-.06-.77-.18-1.12c-.12-.35-.29-.66-.5-.93-.22-.26-.48-.47-.78-.63-.3-.16-.64-.24-1.01-.24s-.7.08-1.01.24c-.3.16-.57.37-.78.63-.22.26-.39.57-.51.93-.12.35-.18.73-.18,1.12Z"/>
        <path class="cls-1" d="M71.15,93.55s-.02.04-.05.04h-2.08s-.06-.01-.06-.04v-.19s.02-.03.05-.03l.79-.15v-5.57h-1.58l-.4,1.1s-.02.02-.04.03c-.01,0-.03,0-.04,0l-.21-.09s-.04-.03-.04-.04l.17-1.32s.02-.03.06-.03h4.73s.06,0,.06.03l.17,1.32s-.01.03-.04.04l-.22.09s-.06,0-.08-.03l-.39-1.1h-1.64v5.57l.8.15s.04.01.04.03v.19Z"/>
        <path class="cls-1" d="M75.21,93.55s-.02.04-.05.04h-2.08s-.06-.01-.06-.04v-.19s.02-.03.05-.03l.79-.15v-5.52l-.79-.14s-.05-.01-.05-.04v-.19s.02-.03.06-.03h2.08s.05.01.05.03v.19s-.01.04-.04.04l-.8.15v2.43h4.1v-2.44l-.79-.14s-.05-.01-.05-.04v-.19s.02-.03.06-.03h2.07s.06.01.06.03v.19s-.02.04-.05.04l-.79.15v5.51l.79.15s.05.01.05.03v.19s-.02.04-.06.04h-2.07s-.06-.01-.06-.04v-.19s.02-.03.05-.03l.79-.15v-2.72h-4.1v2.72l.8.15s.04.01.04.03v.19Z"/>
        <path class="cls-1" d="M84.37,89.21s.06.01.06.03v2.05s-.02.04-.06.04h-.23s-.05,0-.05-.03l-.15-.87h-2.24v2.79h3.25c.05-.19.09-.38.14-.58.05-.19.09-.38.13-.57,0-.02.03-.03.07-.03l.25.04s.05.01.05.04l-.12,1.41s-.02.04-.05.04h-5s-.06-.01-.06-.04v-.19s.02-.03.05-.03l.78-.15v-5.52l-.78-.14s-.05-.01-.05-.04v-.19s.02-.03.06-.03h4.83s.05,0,.05.03l.17,1.32s-.01.04-.03.04l-.22.09s-.06,0-.07-.03l-.4-1.1h-3.04v2.48h2.24l.15-.85s.02-.03.05-.03h.23Z"/>
        <path class="cls-1" d="M88.63,93.55s-.02.04-.06.04h-2.16s-.06-.01-.06-.04v-.19s.02-.03.05-.03l.78-.15v-5.52l-.78-.14s-.05-.01-.05-.04v-.19s.02-.03.06-.03h3.08c1.38.03,2.08.56,2.11,1.59,0,.46-.18.86-.55,1.19-.27.27-.63.43-1.09.49l1.5,2.65,1,.16s.05.01.05.03v.19s-.02.04-.06.04h-1.31s-.04,0-.05-.02l-1.67-3.01h-1.73v2.62l.89.15s.05.01.05.03v.19ZM87.69,87.61v2.62h1.75c.53-.01.93-.14,1.22-.39.28-.25.42-.6.42-1.06,0-.37-.13-.65-.38-.86-.25-.21-.67-.31-1.24-.31h-1.77Z"/>
        <path class="cls-1" d="M96.29,91.2h-2.23l-.65,1.98.59.15s.05.01.05.03v.19s-.02.04-.06.04h-1.8s-.05-.01-.05-.04v-.19s.01-.03.04-.03l.8-.16,2.02-5.99s.04-.03.05-.03h.23s.04,0,.06.03l2.23,5.99.81.16s.04.01.04.03v.19s-.02.04-.05.04h-1.95s-.05-.01-.05-.04v-.19s.01-.03.04-.03l.61-.15-.73-1.98ZM94.19,90.84h1.97l-1.04-2.82-.94,2.82Z"/>
        <path class="cls-1" d="M100.99,93.55s-.02.04-.06.04h-2.25s-.06-.01-.06-.04v-.19s.02-.03.05-.03l.77-.15v-5.52l-.77-.14s-.05-.01-.05-.04v-.19s.02-.03.06-.03h3.07c.69.01,1.21.17,1.56.46.35.3.53.71.54,1.23,0,.26-.04.5-.13.72-.09.22-.22.41-.4.57-.18.16-.4.28-.66.37-.26.09-.57.13-.91.13h-1.79v2.43l.97.16s.05.01.05.03v.19ZM99.96,87.61v2.81h1.73c.59-.01,1.02-.14,1.28-.39.26-.25.38-.63.38-1.16,0-.19-.03-.36-.09-.51-.06-.15-.16-.29-.29-.4-.13-.11-.3-.2-.5-.26-.21-.06-.45-.09-.74-.09h-1.76Z"/>
        <path class="cls-1" d="M108.44,93.55s-.02.04-.06.04h-2.08s-.05-.01-.05-.04v-.19s.01-.03.04-.03l.8-.15v-2.45l-2.03-3.05-.82-.16s-.05-.01-.05-.04v-.19s.02-.03.06-.03h2.21s.05.01.05.03v.19s-.01.04-.04.04l-.85.15,1.8,2.76c.3-.46.59-.92.88-1.38.29-.46.59-.92.88-1.38-.1-.02-.21-.05-.32-.08-.11-.03-.22-.05-.32-.07-.04,0-.05-.01-.05-.04v-.19s.02-.03.06-.03h1.74s.05.01.05.03v.19s-.01.04-.04.04l-.67.16-2.04,3.1v2.4l.79.15s.05.01.05.03v.19Z"/>
      </g>
      <g>
        <g>
          <path class="cls-1" d="M7.52,62.1v2.31h-2.48v10.82h-2.57v-10.82H0v-2.31h7.52Z"/>
          <path class="cls-1" d="M15.67,75.23h-2.57l-.02-5.06h-1.27l.09-1.97h1.18l.02-6.09h5.09c1.51,0,2.7.36,3.57,1.09.85.7,1.27,1.71,1.27,3.01,0,.47-.07.87-.2,1.21-.13.34-.35.7-.65,1.07-.26.34-.67.64-1.21.91-.54.27-1.06.45-1.56.54l2.7,5.3h-2.78l-2.68-5.21-.99.06v5.15ZM15.67,68.2h.55c.63,0,1.31-.05,2.02-.16.72-.1,1.19-.24,1.43-.42.31-.22.53-.41.64-.58.11-.17.17-.42.17-.76,0-.71-.22-1.22-.66-1.53-.16-.11-.41-.21-.76-.27-.35-.07-.75-.12-1.22-.17-.46-.04-.87-.06-1.23-.06h-.96v3.95Z"/>
          <path class="cls-1" d="M31.56,72.48l-1.02,2.75h-2.65l4.46-11h-3.38l.04-2.13h5.6l5.64,13.13h-2.78l-1.03-2.75h-4.88ZM35.59,70.05l-1.55-4.22-1.6,4.22h3.15Z"/>
          <path class="cls-1" d="M47.42,75.23h-2.51v-13.13l7.87,7.59v-7.59h2.51v13.13l-7.87-7.44v7.44Z"/>
          <path class="cls-1" d="M79.14,62.19h2.57v7.72c0,1.11.13,1.89.39,2.34.23.38.75.58,1.56.58.35,0,.69-.06,1.03-.19s.56-.29.67-.5c.25-.48.37-1.3.37-2.47v-7.57h2.57v8.33c0,.93-.05,1.63-.14,2.1-.1.44-.27.84-.51,1.2-.4.6-.89,1.05-1.48,1.33-.28.13-.66.24-1.13.31-.47.08-.93.11-1.37.11-1.14,0-1.93-.11-2.38-.32-.59-.32-1.09-.77-1.48-1.35-.25-.38-.42-.77-.5-1.15-.08-.33-.14-.99-.17-1.98v-8.51Z"/>
          <path class="cls-1" d="M92.98,75.23v-13.13h2.55v13.13h-2.55Z"/>
          <path class="cls-1" d="M109.57,75.23h-9.13v-13.13h2.55v10.82l4.48.02v-1.78l2.1-.04v4.1Z"/>
          <path class="cls-1" d="M113.96,75.23v-13.13h2.55v13.13h-2.55Z"/>
          <path class="cls-1" d="M128.76,62.1v2.31h-2.48v10.82h-2.57v-10.82h-2.47v-2.31h7.52Z"/>
          <path class="cls-1" d="M140.12,69.51v5.73h-2.57v-5.73l-4.65-7.4h2.83l3.16,4.67,3.24-4.67h2.81l-4.82,7.4Z"/>
        </g>
        <path class="cls-1" d="M72,72.92c.93-1.12,1.49-2.55,1.49-4.12,0-3.55-2.88-6.43-6.43-6.43s-6.32,2.78-6.42,6.24c-1.34.36-1.92,1.15-1.92,1.15,0,0,.67-.45,1.94-.43.27,3.3,3.03,5.9,6.4,5.9,1.42,0,2.72-.46,3.78-1.24,2.92.57,4.43-1.01,4.56-1.21-1.24.42-2.36.4-3.4.14ZM67.07,63.79c2.77,0,5.01,2.24,5.01,5.01,0,1.41-.59,2.68-1.53,3.59-2.35-1.1-4.35-3.14-6.48-3.69-.75-.19-1.41-.27-1.98-.27.19-2.59,2.33-4.65,4.98-4.65ZM67.07,73.81c-2.52,0-4.58-1.86-4.94-4.28,1.08.28,2.39.88,3.93,2.06,1.09.84,2.09,1.42,2.99,1.81-.61.26-1.27.41-1.97.41Z"/>
      </g>
      <g>
        <path class="cls-1" d="M70.13,5.22s-7.14,6.42.88,21.94c10.39,20.13-1.43,26.96-2.42,27.31,8.02-12.63-4.64-24.34-5.16-34.67-.58-11.53,6.7-14.58,6.7-14.58Z"/>
        <path class="cls-1" d="M47.14,0v10.24C48.88,4.79,57.97.57,69.19.22c11.21.36,20.31,4.57,22.05,10.02V0h-44.1Z"/>
      </g>
    </g>
  </g>
</svg>